<svg width="738" height="887" viewBox="0 0 738 887" fill="none" xmlns="http://www.w3.org/2000/svg">
<path fill-rule="evenodd" clip-rule="evenodd" d="M746.092 -18.2763C954.666 96.343 1021.07 351.374 907.345 558.467C793.625 765.559 542.175 850.442 320.598 715.119C112.023 600.505 52.2994 358.178 166.02 151.085C279.745 -56.012 518.802 -143.183 746.092 -18.2763ZM385.354 199.302C405.692 210.473 418.911 229.548 423.252 250.539C458.191 271.903 495.636 292.314 532.833 310.733C550.298 276.296 562.635 245.036 569.829 217.413C555.773 194.974 553.907 165.908 567.48 141.195C587.49 104.761 633.45 91.5719 670.144 111.736C706.842 131.9 720.369 177.781 700.358 214.215C693.098 227.445 682.41 237.607 669.987 244.224C660.675 279.867 645.883 316.629 627.425 353.548C649.569 362.591 670.638 370.459 689.912 376.869C711.395 366.132 737.712 365.814 760.466 378.317C797.159 398.481 810.686 444.362 790.68 480.796C770.67 517.226 724.71 530.415 688.016 510.251C672.559 501.757 661.215 488.705 654.751 473.715C630.128 465.429 603.513 455.281 575.894 443.681C557.406 472.696 537.003 502.1 515.132 531.575C515.268 544.032 512.303 556.681 505.89 568.357C485.88 604.792 439.92 617.98 403.221 597.816C366.528 577.652 353.001 531.771 373.012 495.337C387.098 469.685 414.051 455.553 441.579 456.481C455.494 437.326 468.577 418.413 480.727 399.832C442.542 380.707 404.542 359.812 369.084 338.12C350.873 342.967 330.787 341.065 312.904 331.235C276.211 311.071 262.684 265.19 282.69 228.756C302.695 192.321 348.66 179.133 385.354 199.302Z" fill="#FFEFD2" fill-opacity="0.18"/>
<path fill-rule="evenodd" clip-rule="evenodd" d="M334.538 255.26C343.034 242.52 360.332 239.125 373.173 247.674C487.796 323.983 643.997 393.579 730.417 413.455C745.441 416.91 754.889 431.829 751.511 446.778C748.139 461.722 733.225 471.042 718.201 467.582C623.563 445.814 461.115 372.845 342.398 293.807C329.557 285.259 326.038 268 334.538 255.26Z" fill="#FFEFD2" fill-opacity="0.18"/>
<path fill-rule="evenodd" clip-rule="evenodd" d="M424.134 550.316C412.806 539.856 412.08 522.279 422.506 511.057C530.61 394.764 591.322 258.73 602.837 168.344C604.778 153.138 618.728 142.456 634.005 144.484C649.281 146.511 660.09 160.477 658.154 175.688C644.91 279.605 577.891 425.913 463.53 548.949C453.099 560.166 435.463 560.782 424.134 550.316Z" fill="#FFEFD2" fill-opacity="0.18"/>
<path fill-rule="evenodd" clip-rule="evenodd" d="M127.35 130.326C-6.15898 373.45 92.038 625.677 291.356 735.212L312.325 746.767L341.435 762.765C431.233 812.075 549.597 831.185 661.679 798.604C774.043 765.942 870.838 691.268 935.115 574.222C1062.9 341.509 995.217 77.9441 763.254 -49.5261C635.598 -119.677 500.592 -136.927 390.708 -100.581C280.471 -64.117 191.909 12.7565 127.35 130.326ZM278.021 809.236C18.5454 666.282 -69.7881 414.716 60.1695 120.032C122.747 -21.8724 251.487 -119.824 376.742 -161.255C502.351 -202.799 644.794 -191.458 785.175 -114.315C1083.38 49.5591 1136.56 348.298 994.561 606.889C923.937 735.494 806.668 829.647 678.856 866.798C550.953 903.984 414.802 892.636 278.021 809.236Z" fill="#FFEFD2" fill-opacity="0.18"/>
</svg>
