<svg width="391" height="114" viewBox="0 0 391 114" fill="none" xmlns="http://www.w3.org/2000/svg">
<g clip-path="url(#clip0_28_32)">
<path fill-rule="evenodd" clip-rule="evenodd" d="M192.161 70.9609C190.901 70.9609 190.061 70.7399 189.641 70.2978C188.801 69.4135 187.909 68.6398 186.963 67.9766C184.128 65.5449 181.66 64.3291 179.56 64.3291C174.94 64.3291 170.634 66.9266 166.644 72.1215C162.654 77.2059 160.659 83.672 160.659 91.5197C160.659 96.4936 161.394 99.8648 162.864 101.633C164.439 103.291 166.959 104.12 170.424 104.12C177.775 104.12 185.021 93.0672 192.161 70.9609ZM235.163 99.478C233.378 102.241 230.28 105.115 225.869 108.099C221.564 110.973 217.154 112.41 212.638 112.41C208.228 112.41 204.395 110.365 201.14 106.276C197.884 102.075 195.627 97.1568 194.367 91.5197C191.426 98.2621 187.856 103.733 183.656 107.934C179.56 112.023 174.887 114.068 169.637 114.068C164.491 114.068 160.134 112.355 156.563 108.928C155.684 108.058 154.913 107.019 154.251 105.813C153.791 106.051 153.283 106.268 152.724 106.464C147.054 108.453 134.943 112.41 131.373 112.41C127.908 112.41 125.073 110.863 122.867 107.768C120.662 104.673 119.35 101.246 118.93 97.4884C117.774 87.5406 115.937 82.5667 113.417 82.5667C112.051 82.5667 110.476 83.5062 108.691 85.3852L104.596 89.696C103.546 90.6908 102.338 91.9619 100.973 93.5093C95.0924 100.141 89.1068 104.894 83.0163 107.768C79.186 109.575 75.3231 110.576 74.155 110.583C73.9788 110.636 73.7482 110.665 73.454 110.665C73.3988 110.665 73.3383 110.665 73.2724 110.665H73.2718H73.2712C71.8337 110.676 67.9119 110.706 63.3135 106.5C62.5159 105.771 61.7676 104.842 60.8399 103.69C60.6249 103.423 60.4003 103.144 60.1632 102.853C55.7528 97.4368 52.2948 93.9514 47.2543 89.8618C42.3189 85.7721 33.9181 79.914 22.052 72.2873C18.9017 70.1872 17.3266 68.0871 17.3266 65.987C17.3266 62.6711 18.9017 61.0131 22.052 61.0131H37.8035C46.5193 61.0131 52.8723 59.6868 56.8627 57.034C60.9581 54.3813 63.0058 50.0153 63.0058 43.9361C63.0058 37.7464 61.4831 33.3804 58.4379 30.8382C55.4976 28.1854 50.9822 26.8591 44.8916 26.8591C38.8011 26.8591 33.4981 28.1854 28.9827 30.8382C24.3622 33.6014 20.6869 37.1937 17.9566 41.615C12.2861 50.6785 9.45086 60.4605 9.45086 70.9609C9.45086 84.6668 10.606 96.5489 12.9162 106.607C13.1262 107.27 13.2312 108.099 13.2312 109.094C13.2312 112.41 11.6561 114.068 8.50578 114.068C7.35067 114.068 6.35308 113.515 5.513 112.41C4.67293 111.194 4.09537 110.089 3.78035 109.094C1.26011 98.4832 0 85.7721 0 70.9609C0 62.3395 1.62765 53.9944 4.88295 45.9257C8.13824 37.8569 13.2312 31.004 20.1618 25.3669C27.0925 19.7298 34.9682 16.9113 43.789 16.9113C52.7148 16.9113 59.698 19.1219 64.7384 23.5431C69.8839 27.8538 72.4566 34.2646 72.4566 42.7755C72.4566 61.5658 60.9056 70.9609 37.8035 70.9609C50.7196 79.4718 60.6956 87.9827 67.7312 96.4936C68.4814 97.2227 69.6866 98.0518 70.988 98.8903C70.9799 98.8788 70.9757 98.8684 70.9757 98.859L70.9947 98.8946C71.0851 98.9528 71.1759 99.0111 71.267 99.0694C72.0801 99.4543 74.4478 100.094 76.4854 99.7888C77.2182 99.5599 77.8928 99.2979 78.4483 98.9806C80.1285 98.3174 82.3337 96.991 85.0639 95.0015C87.8992 93.0119 89.7894 91.5197 90.7345 90.525C91.6796 89.5302 93.3072 87.7064 95.6174 85.0537C98.0326 82.4009 99.9228 80.4114 101.288 79.085C102.653 77.6481 104.491 76.2112 106.801 74.7743C109.216 73.3374 111.421 72.6189 113.417 72.6189C117.512 72.6189 120.662 74.1664 122.867 77.2612C125.073 80.3561 126.385 83.7826 126.805 87.5406C127.96 97.4884 129.798 102.462 132.318 102.462C134.313 102.462 136.886 101.91 140.036 100.804C141.384 100.332 143.841 99.4185 146.237 98.5279L146.238 98.5275L146.24 98.5271L146.24 98.527C148.318 97.7545 150.351 96.9992 151.573 96.5633C151.329 94.5732 151.208 92.3946 151.208 90.0276C151.208 80.8535 154.043 72.6189 159.713 65.3239C165.384 58.0288 172 54.3813 179.56 54.3813C183.866 54.3813 188.906 56.8682 194.682 61.8421C196.572 39.2938 200.405 20.3377 206.18 4.9739C207.44 1.65797 209.068 0 211.063 0C214.213 0 215.789 1.65797 215.789 4.9739C215.789 5.74762 215.579 6.68713 215.159 7.79244C211.693 16.856 208.805 28.2407 206.495 41.9465C204.29 55.6524 203.187 70.2978 203.187 85.8826C203.187 89.4196 204.185 93.0672 206.18 96.8252C208.175 100.583 210.328 102.462 212.638 102.462C215.894 102.462 218.939 101.412 221.774 99.3122C224.609 97.2121 226.657 95.0567 227.917 92.8461C229.177 90.6355 230.7 87.9275 232.485 84.7221C234.27 81.5167 235.478 79.3613 236.108 78.256C236.843 77.1507 237.736 75.8243 238.786 74.2769C239.836 72.6189 240.781 71.5689 241.621 71.1267C243.826 69.9109 246.241 69.303 248.867 69.303C253.172 69.303 256.427 71.1267 258.633 74.7743C260.838 78.4218 262.098 82.4009 262.413 86.7116C262.833 91.0223 263.41 95.0015 264.146 98.649C264.881 102.297 266.088 104.12 267.768 104.12C269.449 104.12 271.024 102.739 272.494 99.9754C274.069 97.2121 275.434 94.1725 276.589 90.8565C277.744 87.5406 279.582 84.501 282.102 81.7377C284.727 78.9745 287.825 77.5928 291.396 77.5928C294.126 77.5928 296.121 78.3113 297.381 79.7482C298.641 81.0745 299.534 82.1246 300.059 82.8983C300.689 83.672 301.214 84.8326 301.634 86.38C302.159 87.9275 302.527 89.0881 302.737 89.8618C302.947 90.525 303.262 91.7408 303.682 93.5093C304.942 99.5885 306.097 102.573 307.147 102.462C309.142 102.462 311.715 101.91 314.865 100.804C316.077 100.379 317.078 100.036 317.871 99.7744C318.354 99.496 318.893 99.2314 319.488 98.9806C321.169 98.3174 323.374 96.991 326.104 95.0015C328.939 93.0119 330.829 91.5197 331.775 90.525C332.72 89.5302 334.347 87.7064 336.658 85.0537C339.073 82.4009 340.963 80.4114 342.328 79.085C343.693 77.6481 345.531 76.2112 347.841 74.7743C350.256 73.3374 352.461 72.6189 354.457 72.6189C358.552 72.6189 361.702 74.1664 363.908 77.2612C366.113 80.3561 367.425 83.7826 367.845 87.5406C369 97.4884 370.838 102.462 373.358 102.462C375.354 102.462 377.926 101.91 381.077 100.804C384.227 99.699 385.96 99.1464 386.275 99.1464C389.425 99.1464 391 100.804 391 104.12C391 106.552 389.425 108.32 386.275 109.426C380.604 111.415 375.984 112.41 372.413 112.41C368.948 112.41 366.113 110.863 363.908 107.768C361.702 104.673 360.39 101.246 359.97 97.4884C358.815 87.5406 356.977 82.5667 354.457 82.5667C353.092 82.5667 351.516 83.5062 349.731 85.3852L345.636 89.696C344.586 90.6908 343.378 91.9619 342.013 93.5093C336.133 100.141 330.147 104.894 324.056 107.768C323.223 108.158 322.461 108.462 321.771 108.68C321.265 108.955 320.696 109.204 320.063 109.426C314.393 111.415 309.982 112.41 306.832 112.41C303.682 112.41 301.214 111.194 299.429 108.763C297.644 106.331 296.016 102.186 294.546 96.3278C293.181 90.4697 292.131 87.5406 291.396 87.5406C288.665 87.5406 285.777 91.9619 282.732 100.804C281.577 104.12 279.687 107.16 277.062 109.923C274.436 112.686 271.129 114.068 267.138 114.068C263.253 114.068 260.208 112.244 258.002 108.597C255.797 104.949 254.485 100.97 254.065 96.6594C253.75 92.3487 253.225 88.3696 252.489 84.7221C251.754 81.0745 250.547 79.2508 248.867 79.2508C247.712 79.2508 246.871 79.5824 246.346 80.2456C245.821 80.9087 245.349 81.5719 244.929 82.2351C244.614 82.7878 244.246 83.3957 243.826 84.0589C243.511 84.6115 243.091 85.3852 242.566 86.38C242.146 87.3748 241.621 88.4249 240.991 89.5302C238.891 93.3988 236.948 96.7147 235.163 99.478ZM120.347 34.3199C118.562 32.6619 116.829 31.8329 115.149 31.8329C111.999 31.8329 110.424 33.4909 110.424 36.8068C110.424 38.6859 110.949 40.4544 111.999 42.1123C113.154 43.6598 114.572 44.4335 116.252 44.4335C117.932 44.4335 119.455 43.9914 120.82 43.1071C122.29 42.2229 123.025 40.9518 123.025 39.2938C123.025 37.5253 122.132 35.8673 120.347 34.3199ZM361.387 34.3199C359.602 32.6619 357.869 31.8329 356.189 31.8329C353.039 31.8329 351.464 33.4909 351.464 36.8068C351.464 38.6859 351.989 40.4544 353.039 42.1123C354.194 43.6598 355.612 44.4335 357.292 44.4335C358.972 44.4335 360.495 43.9914 361.86 43.1071C363.33 42.2229 364.065 40.9518 364.065 39.2938C364.065 37.5253 363.172 35.8673 361.387 34.3199Z" fill="#FFEFD2"/>
</g>
<defs>
<clipPath id="clip0_28_32">
<rect width="391" height="114" fill="white"/>
</clipPath>
</defs>
</svg>
