<svg width="169" height="50" viewBox="0 0 169 50" fill="none" xmlns="http://www.w3.org/2000/svg">
<path fill-rule="evenodd" clip-rule="evenodd" d="M34.4477 7.69874C43.9777 12.9571 47.0118 24.6573 41.8156 34.1581C36.6195 43.6589 25.1305 47.5531 15.0064 41.3448C5.47634 36.0867 2.74748 24.9694 7.94351 15.4686C13.1398 5.96753 24.0626 1.96838 34.4477 7.69874ZM17.9651 17.6806C18.8944 18.1931 19.4984 19.0682 19.6968 20.0312C21.2932 21.0114 23.004 21.9478 24.7037 22.7928C25.5016 21.2129 26.0653 19.7788 26.394 18.5115C25.7518 17.4821 25.6666 16.1486 26.2867 15.0148C27.201 13.3433 29.301 12.7383 30.9775 13.6633C32.6543 14.5884 33.2724 16.6933 32.3581 18.3648C32.0264 18.9717 31.538 19.438 30.9704 19.7415C30.5449 21.3767 29.869 23.0633 29.0257 24.757C30.0374 25.1719 31.0001 25.5328 31.8808 25.8269C32.8623 25.3343 34.0648 25.3197 35.1044 25.8933C36.781 26.8184 37.3991 28.9233 36.485 30.5948C35.5707 32.2661 33.4707 32.8711 31.7942 31.9461C31.0879 31.5564 30.5696 30.9576 30.2742 30.2699C29.1492 29.8898 27.9331 29.4242 26.6712 28.892C25.8264 30.2232 24.8942 31.5721 23.8949 32.9243C23.9011 33.4959 23.7656 34.0762 23.4726 34.6118C22.5583 36.2833 20.4583 36.8884 18.7815 35.9633C17.105 35.0383 16.4869 32.9334 17.4012 31.2619C18.0448 30.085 19.2763 29.4367 20.5341 29.4793C21.1699 28.6005 21.7677 27.7328 22.3229 26.8804C20.5781 26.003 18.8419 25.0444 17.2218 24.0492C16.3897 24.2715 15.4719 24.1843 14.6548 23.7333C12.9783 22.8083 12.3602 20.7034 13.2743 19.0319C14.1884 17.3604 16.2886 16.7553 17.9651 17.6806Z" fill="#FFFBFF"/>
<path fill-rule="evenodd" clip-rule="evenodd" d="M15.6433 20.248C16.0315 19.6635 16.8219 19.5078 17.4086 19.9C22.6458 23.4008 29.7829 26.5936 33.7315 27.5055C34.418 27.664 34.8497 28.3484 34.6953 29.0343C34.5412 29.7198 33.8598 30.1474 33.1733 29.9887C28.8492 28.9901 21.4268 25.6424 16.0025 22.0164C15.4157 21.6242 15.2549 20.8324 15.6433 20.248Z" fill="#FFFBFF"/>
<path fill-rule="evenodd" clip-rule="evenodd" d="M19.737 33.7843C19.2194 33.3044 19.1862 32.4981 19.6626 31.9832C24.602 26.648 27.376 20.4072 27.9022 16.2605C27.9909 15.5629 28.6283 15.0729 29.3263 15.1659C30.0243 15.2589 30.5182 15.8996 30.4297 16.5974C29.8245 21.3648 26.7624 28.077 21.5371 33.7216C21.0605 34.2362 20.2547 34.2645 19.737 33.7843Z" fill="#FFFBFF"/>
<path fill-rule="evenodd" clip-rule="evenodd" d="M6.17662 14.5163C0.0764347 25.6701 4.56317 37.2416 13.6703 42.2668L14.6283 42.7969L15.9584 43.5308C20.0614 45.7931 25.4696 46.6698 30.5907 45.175C35.7248 43.6766 40.1475 40.2507 43.0844 34.881C48.9231 24.2048 45.8305 12.1132 35.2318 6.26521C29.3991 3.04688 23.2305 2.2555 18.2098 3.92294C13.1729 5.59582 9.1264 9.12256 6.17662 14.5163ZM13.061 45.6628C1.20521 39.1045 -2.83086 27.5633 3.10706 14.0441C5.9663 7.53388 11.8486 3.04013 17.5717 1.13938C23.3109 -0.766518 29.8193 -0.246208 36.2334 3.29289C49.8586 10.811 52.2887 24.5162 45.8005 36.3797C42.5737 42.2797 37.2155 46.5992 31.3756 48.3036C25.5316 50.0096 19.3107 49.4889 13.061 45.6628Z" fill="#FFFBFF"/>
<path fill-rule="evenodd" clip-rule="evenodd" d="M114.771 26.3332C114.707 25.8989 114.626 25.4688 114.536 25.0511C114.513 25.0217 114.495 24.9984 114.481 24.984C114.255 24.7448 114.015 24.5354 113.76 24.3558C112.996 23.6978 112.331 23.3687 111.766 23.3687C110.521 23.3687 109.361 24.0717 108.285 25.4776C107.21 26.8536 106.673 28.6035 106.673 30.7272C106.673 32.0734 106.871 32.9857 107.267 33.4642C107.691 33.9129 108.37 34.1373 109.304 34.1373C111.151 34.1373 112.973 31.5359 114.771 26.3332ZM124.243 35.2142C125.431 34.4064 126.265 33.6287 126.746 32.8809C127.227 32.1331 127.751 31.2358 128.317 30.1888C128.486 29.8896 128.628 29.6054 128.741 29.3363C128.882 29.067 128.996 28.8576 129.081 28.7081C129.194 28.5286 129.293 28.3641 129.378 28.2146C129.491 28.035 129.618 27.8557 129.76 27.6762C129.901 27.4966 130.127 27.4071 130.439 27.4071C130.891 27.4071 131.217 27.9006 131.415 28.8877C131.613 29.8748 131.754 30.9516 131.839 32.1183C131.952 33.2847 132.306 34.3615 132.9 35.3488C133.494 36.3359 134.315 36.8294 135.362 36.8294C136.437 36.8294 137.328 36.4555 138.035 35.7077C138.743 34.9599 139.252 34.1373 139.563 33.24C140.383 30.8468 141.162 29.6503 141.897 29.6503C142.095 29.6503 142.378 30.443 142.746 32.0285C143.142 33.6137 143.581 34.7354 144.062 35.3935C144.542 36.0518 145.207 36.3808 146.056 36.3808C146.905 36.3808 148.093 36.1115 149.621 35.573C149.792 35.5129 149.945 35.4458 150.081 35.371C150.267 35.312 150.472 35.2299 150.697 35.1244C152.338 34.3467 153.951 33.0605 155.535 31.2656C155.903 30.8468 156.228 30.503 156.511 30.2336L157.614 29.067C158.095 28.5587 158.52 28.3044 158.888 28.3044C159.567 28.3044 160.062 29.6503 160.373 32.3425C160.486 33.3596 160.84 34.2868 161.434 35.1244C162.028 35.962 162.792 36.3808 163.726 36.3808C164.688 36.3808 165.933 36.1115 167.46 35.573C168.309 35.2739 168.734 34.7954 168.734 34.1373C168.734 33.24 168.309 32.7911 167.46 32.7911C167.376 32.7911 166.909 32.9408 166.06 33.24C165.211 33.5389 164.518 33.6887 163.98 33.6887C163.301 33.6887 162.806 32.3425 162.495 29.6503C162.382 28.6334 162.028 27.706 161.434 26.8686C160.84 26.031 159.991 25.6122 158.888 25.6122C158.35 25.6122 157.756 25.8066 157.105 26.1955C156.483 26.5843 155.988 26.9732 155.62 27.3622C155.252 27.7211 154.743 28.2595 154.092 28.9775C153.47 29.6952 153.031 30.1888 152.776 30.4581C152.522 30.7272 152.013 31.1309 151.249 31.6694C150.513 32.2078 149.919 32.5669 149.466 32.7462C149.306 32.8143 149.16 32.8858 149.03 32.9612C148.817 33.032 148.547 33.1248 148.221 33.24C147.372 33.5389 146.679 33.6887 146.141 33.6887C145.858 33.7185 145.547 32.9107 145.207 31.2656C145.094 30.7871 145.009 30.4581 144.953 30.2785C144.896 30.0691 144.797 29.7551 144.656 29.3363C144.542 28.9175 144.401 28.6036 144.231 28.3941C144.09 28.1847 143.849 27.9006 143.51 27.5415C143.17 27.1528 142.633 26.9582 141.897 26.9582C140.935 26.9582 140.101 27.3321 139.393 28.0799C138.714 28.8278 138.219 29.6503 137.908 30.5479C137.597 31.4452 137.229 32.2677 136.804 33.0156C136.408 33.7634 135.984 34.1373 135.531 34.1373C135.079 34.1373 134.753 33.6438 134.555 32.6567C134.357 31.6694 134.202 30.5927 134.088 29.4261C134.003 28.2595 133.664 27.1826 133.07 26.1955C132.476 25.2085 131.599 24.7149 130.439 24.7149C129.731 24.7149 129.081 24.8794 128.486 25.2085C128.26 25.3281 128.006 25.6122 127.723 26.0609C127.44 26.4797 127.199 26.8386 127.001 27.1377C126.831 27.4369 126.506 28.0202 126.025 28.8877C125.544 29.7551 125.134 30.4879 124.794 31.0863C124.455 31.6844 123.903 32.2677 123.139 32.836C122.375 33.4045 121.555 33.6887 120.678 33.6887C120.055 33.6887 119.475 33.1801 118.938 32.1631C118.4 31.146 118.131 30.1589 118.131 29.2017C118.131 24.984 118.428 21.0207 119.023 17.3116C119.645 13.6023 120.423 10.5214 121.357 8.06854C121.47 7.76936 121.526 7.51507 121.526 7.3059C121.526 6.40837 121.102 5.95972 120.253 5.95972C119.716 5.95972 119.277 6.40837 118.938 7.3059C117.381 11.4636 116.349 16.5936 115.84 22.6956C114.284 21.3497 112.925 20.6766 111.766 20.6766C109.728 20.6766 107.946 21.6637 106.418 23.6381C104.89 25.6122 104.127 27.8407 104.127 30.3234C104.127 30.8808 104.151 31.3996 104.201 31.8799C104.132 31.9898 104.037 32.1046 103.906 32.2083C103.592 32.3235 103.193 32.4723 102.788 32.6236C102.142 32.8647 101.48 33.112 101.117 33.24C100.268 33.5389 99.5746 33.6887 99.0372 33.6887C98.3581 33.6887 97.863 32.3425 97.5518 29.6503C97.4384 28.6334 97.0848 27.706 96.4907 26.8686C95.8966 26.031 95.0478 25.6122 93.9443 25.6122C93.4069 25.6122 92.8128 25.8066 92.162 26.1955C91.5396 26.5843 91.0443 26.9732 90.6767 27.3622C90.3088 27.7211 89.7994 28.2595 89.1487 28.9775C88.5262 29.6952 88.0879 30.1888 87.8331 30.4581C87.5785 30.7272 87.0692 31.1309 86.3053 31.6694C85.5698 32.2078 84.9757 32.5669 84.523 32.7462C84.3733 32.8321 84.1915 32.9031 83.9941 32.9651C83.4452 33.0477 82.8068 32.8744 82.588 32.7703C82.5633 32.7546 82.5389 32.7388 82.5147 32.7231L82.5097 32.7134C82.5097 32.7159 82.5108 32.7187 82.5129 32.7219C82.1623 32.4949 81.8375 32.2705 81.6355 32.0734C79.7398 29.77 77.052 27.4668 73.5719 25.1636C79.7965 25.1636 82.9087 22.6209 82.9087 17.5358C82.9087 15.2326 82.2155 13.4977 80.8292 12.3311C79.471 11.1346 77.5896 10.5362 75.1847 10.5362C72.808 10.5362 70.6862 11.2991 68.8189 12.8246C66.9516 14.3501 65.5793 16.2047 64.7023 18.3885C63.8251 20.572 63.3867 22.8303 63.3867 25.1636C63.3867 29.1718 63.726 32.6118 64.4051 35.4833C64.4902 35.7526 64.6456 36.0518 64.8721 36.3808C65.0983 36.6797 65.3671 36.8294 65.6783 36.8294C66.5272 36.8294 66.9516 36.3808 66.9516 35.4833C66.9516 35.2142 66.9232 34.9897 66.8666 34.8104C66.2441 32.0882 65.9329 28.8726 65.9329 25.1636C65.9329 22.3217 66.6968 19.6745 68.2248 17.2218C68.9603 16.0253 69.9506 15.0531 71.1955 14.3052C72.412 13.5875 73.8407 13.2284 75.4818 13.2284C77.1227 13.2284 78.3392 13.5875 79.1314 14.3052C79.952 14.9934 80.3622 16.1748 80.3622 17.85C80.3622 19.4952 79.8105 20.6766 78.7071 21.3946C77.632 22.1126 75.9202 22.4714 73.5719 22.4714H69.3282C68.4793 22.4714 68.055 22.9201 68.055 23.8174C68.055 24.3859 68.4793 24.9542 69.3282 25.5225C72.5251 27.5864 74.7887 29.1718 76.1183 30.2785C77.4763 31.3852 78.4081 32.3286 79.5963 33.7942C79.6603 33.8731 79.7207 33.9485 79.7787 34.0207C80.0287 34.3324 80.2303 34.5841 80.4452 34.7815C81.6841 35.9194 82.7407 35.9115 83.128 35.9085C83.1457 35.9083 83.1623 35.9083 83.1773 35.9083C83.2565 35.9083 83.3187 35.9007 83.3662 35.8861C83.6808 35.8845 84.7216 35.6135 85.7536 35.1244C87.3947 34.3467 89.0072 33.0605 90.5917 31.2656C90.9595 30.8468 91.2848 30.503 91.5677 30.2336L92.6711 29.067C93.1521 28.5587 93.5767 28.3044 93.9443 28.3044C94.6234 28.3044 95.1185 29.6503 95.4297 32.3425C95.543 33.3596 95.8966 34.2868 96.4907 35.1244C97.0848 35.962 97.8487 36.3808 98.7824 36.3808C99.7444 36.3808 103.007 35.3097 104.535 34.7713C104.666 34.7255 104.786 34.675 104.897 34.6207C104.918 34.62 104.938 34.6195 104.959 34.619C105.135 34.9353 105.338 35.2084 105.569 35.4384C106.531 36.3658 107.705 36.8294 109.092 36.8294C110.506 36.8294 111.766 36.276 112.869 35.1693C114 34.0325 114.962 32.5519 115.755 30.7272C116.094 32.2527 116.703 33.5838 117.58 34.7206C118.457 35.8273 119.489 36.3808 120.678 36.3808C121.894 36.3808 123.082 35.9918 124.243 35.2142ZM94.4113 14.5746C94.8639 14.5746 95.3306 14.7988 95.8116 15.2477C96.2926 15.6662 96.5331 16.1151 96.5331 16.5936C96.5331 17.0423 96.335 17.3863 95.939 17.6256C95.5711 17.8648 95.1609 17.9845 94.7082 17.9845C94.2556 17.9845 93.8736 17.7751 93.5624 17.3565C93.2795 16.9076 93.1381 16.4291 93.1381 15.9205C93.1381 15.0232 93.5624 14.5746 94.4113 14.5746ZM159.354 14.5746C159.807 14.5746 160.274 14.7988 160.755 15.2477C161.236 15.6662 161.476 16.1151 161.476 16.5936C161.476 17.0423 161.278 17.3863 160.882 17.6256C160.515 17.8648 160.104 17.9845 159.652 17.9845C159.199 17.9845 158.817 17.7751 158.506 17.3565C158.223 16.9076 158.081 16.4291 158.081 15.9205C158.081 15.0232 158.506 14.5746 159.354 14.5746Z" fill="#FFFBFF"/>
</svg>
