<svg width="183" height="183" viewBox="0 0 183 183" fill="none" xmlns="http://www.w3.org/2000/svg">
<g clip-path="url(#clip0_127_55)">
<mask id="mask0_127_55" style="mask-type:luminance" maskUnits="userSpaceOnUse" x="0" y="0" width="183" height="185">
<path d="M183 0H0V184.005H183V0Z" fill="white"/>
</mask>
<g mask="url(#mask0_127_55)">
<path fill-rule="evenodd" clip-rule="evenodd" d="M95.3178 18.5594C116.768 16.2635 140.246 12.1168 157.186 25.4889C175.384 39.8523 181.133 64.2738 182.567 87.4293C184.115 112.405 182.193 139.055 165.369 157.562C147.956 176.717 120.988 186.62 95.3178 183.408C71.7923 180.464 55.401 160.704 40.8324 141.978C28.4604 126.075 19.7687 107.568 20.6488 87.4293C21.4927 68.1179 31.2004 50.5504 45.4003 37.4536C59.001 24.909 76.93 20.5276 95.3178 18.5594Z" fill="#FFC93C"/>
<path fill-rule="evenodd" clip-rule="evenodd" d="M140.54 40.3576L152.751 30.8621L158.349 38.1399L146.138 47.6355C141.945 50.8953 136.826 52.6716 131.549 52.6716H102.978C99.5729 52.6716 96.3743 54.6681 94.783 57.9679C92.8024 62.0753 93.8589 67.0291 97.2118 69.8737C97.2118 69.8737 97.2118 69.8737 97.2118 69.8737L128.42 96.3482C134.762 101.728 138 110.024 137.105 118.375C137.105 118.375 137.105 118.375 137.105 118.375L134.217 145.332C133.978 147.554 133.451 149.737 132.648 151.819L132.591 151.967L124.235 169.86L115.953 165.95L124.17 148.353C124.652 147.068 124.972 145.721 125.119 144.346C125.119 144.347 125.119 144.346 125.119 144.346L128.008 117.39C128.584 112.014 126.487 106.746 122.52 103.38L91.3115 76.9056C84.7052 71.3011 82.776 61.7801 86.5498 53.954C89.6218 47.5833 95.9565 43.4713 102.978 43.4713H131.549C134.775 43.4713 137.93 42.3869 140.54 40.3576C140.54 40.3575 140.54 40.3576 140.54 40.3576Z" fill="#254626"/>
<path fill-rule="evenodd" clip-rule="evenodd" d="M49.4689 94.1212C51.2289 83.5866 42.0645 74.3456 31.3693 76.1238L31.3692 76.1238L5.32122 80.4539L3.82874 71.3768L29.8766 67.0467C29.8767 67.0467 29.8767 67.0467 29.8767 67.0467C46.6562 64.257 61.311 78.7752 58.4924 95.6455L53.9806 94.8833L58.4924 95.6455L56.6157 106.878L56.6157 106.878C55.4876 113.629 58.901 120.349 65.0805 123.431L65.0805 123.431L73.1608 127.461C73.1608 127.461 73.1609 127.461 73.1609 127.461C83.5818 132.658 89.0161 144.402 86.178 155.725C86.178 155.725 86.178 155.725 86.178 155.725L81.114 175.929L72.2414 173.681L77.3054 153.476L77.3055 153.476C79.0821 146.388 75.6922 138.993 69.0951 135.703L69.0951 135.703L61.0147 131.673C61.0147 131.673 61.0147 131.673 61.0147 131.673C51.2544 126.806 45.7901 116.137 47.5922 105.353L49.4689 94.1212Z" fill="#254626"/>
<path fill-rule="evenodd" clip-rule="evenodd" d="M0 88.5526C0 39.5876 40.0005 0 89.2125 0C138.424 0 178.425 39.5876 178.425 88.5526C178.425 137.518 138.424 177.105 89.2125 177.105C40.0005 177.105 0 137.518 0 88.5526ZM89.2125 9.20027C44.9362 9.20027 9.15 44.7863 9.15 88.5526C9.15 132.319 44.9362 167.905 89.2125 167.905C133.489 167.905 169.275 132.319 169.275 88.5526C169.275 44.7863 133.489 9.20027 89.2125 9.20027Z" fill="#254626"/>
</g>
</g>
<defs>
<clipPath id="clip0_127_55">
<rect width="183" height="183" fill="white"/>
</clipPath>
</defs>
</svg>
