<svg width="183" height="183" viewBox="0 0 183 183" fill="none" xmlns="http://www.w3.org/2000/svg">
<g clip-path="url(#clip0_127_64)">
<mask id="mask0_127_64" style="mask-type:luminance" maskUnits="userSpaceOnUse" x="0" y="0" width="183" height="183">
<path d="M183 0H0V183H183V0Z" fill="white"/>
</mask>
<g mask="url(#mask0_127_64)">
<path fill-rule="evenodd" clip-rule="evenodd" d="M54.0683 60.8347C68.7881 50.981 86.0333 52.5752 102.388 53.3966C118.573 54.2094 134.52 55.783 145.834 65.4431C159.652 77.2404 174.038 92.1858 170.52 111.568C166.952 131.228 146.669 145.346 129.029 158.038C112.309 170.069 93.6276 182.208 74.828 180.421C56.6081 178.689 46.4102 163.328 37.095 149.3C28.5121 136.375 21.7236 121.897 24.9161 105.258C28.1799 88.2467 38.452 71.2888 54.0683 60.8347Z" fill="#FFC93C"/>
<path fill-rule="evenodd" clip-rule="evenodd" d="M87.5313 3.08424C90.4741 1.5324 93.9865 0.869869 97.2924 1.24758C101 1.67117 103.811 3.89384 105.907 6.33084C108.01 8.77534 109.92 12.0404 111.781 15.8147C115.479 23.3116 119.655 34.2475 125.017 48.2855L125.144 48.6195C129.395 59.749 133.158 70.4804 135.867 79.8148C138.532 88.999 140.334 97.3442 140.334 103.485C140.334 137.868 112.739 165.844 78.5711 165.844C44.4038 165.844 16.8087 137.868 16.8087 103.485C16.8087 97.7495 18.3772 90.1237 20.7262 81.7394C23.112 73.2239 26.4444 63.4472 30.2603 53.221L35.591 55.2101L30.2604 53.2209C32.8842 46.1894 39.5062 43.4097 45.3759 44.58C51.1978 45.7409 56.2679 50.7698 56.2679 58.1737C56.2679 64.457 61.2919 69.4469 67.3623 69.4469C73.4327 69.4469 78.4567 64.457 78.4567 58.1737V57.8207C78.4566 42.4998 78.4566 30.581 79.2335 22.1133C79.6245 17.8521 80.2411 14.0707 81.3241 11.0035C82.3992 7.95879 84.214 4.83366 87.5313 3.08427L87.5313 3.08424ZM92.9357 13.1654C92.8381 13.2675 92.5104 13.675 92.109 14.8116C91.4979 16.5423 90.9852 19.2134 90.6232 23.1583C89.9002 31.0379 89.8942 42.4283 89.8942 58.1737C89.8942 70.6593 79.8632 80.8844 67.3623 80.8844C54.8614 80.8844 44.8304 70.6593 44.8304 58.1737C44.8304 57.2481 44.5496 56.7467 44.3078 56.4636C44.0286 56.1366 43.6167 55.8919 43.1395 55.7968C42.6627 55.7017 42.2445 55.7788 41.9429 55.9381C41.6977 56.0676 41.2931 56.3702 40.9761 57.2196C37.2191 67.2878 34.006 76.7357 31.7396 84.825C29.4365 93.0456 28.2462 99.4048 28.2462 103.485C28.2462 131.665 50.8344 154.406 78.5711 154.406C106.308 154.406 128.896 131.665 128.896 103.485C128.896 99.0802 127.513 92.0671 124.883 83.0023C122.296 74.0877 118.653 63.6793 114.46 52.7003L119.802 50.6599L114.46 52.7003C108.944 38.2594 104.954 27.8298 101.524 20.8734C99.8063 17.3914 98.3997 15.142 97.2364 13.7896C96.4847 12.9158 96.0489 12.6627 95.9216 12.6035C94.9487 12.5086 93.8169 12.7202 92.9357 13.1654ZM95.8821 12.5878C95.8821 12.5875 95.8881 12.5891 95.9 12.594C95.8881 12.5907 95.8821 12.5882 95.8821 12.5878ZM92.9655 13.1374C92.9655 13.1376 92.9621 13.1408 92.9548 13.1464C92.9618 13.14 92.9654 13.1372 92.9655 13.1374Z" fill="#254626"/>
</g>
</g>
<defs>
<clipPath id="clip0_127_64">
<rect width="183" height="183" fill="white"/>
</clipPath>
</defs>
</svg>
