<svg width="185" height="185" viewBox="0 0 185 185" fill="none" xmlns="http://www.w3.org/2000/svg">
<g clip-path="url(#clip0_127_71)">
<mask id="mask0_127_71" style="mask-type:luminance" maskUnits="userSpaceOnUse" x="0" y="0" width="185" height="185">
<path d="M185 0H0V185H185V0Z" fill="white"/>
</mask>
<g mask="url(#mask0_127_71)">
<mask id="mask1_127_71" style="mask-type:luminance" maskUnits="userSpaceOnUse" x="0" y="0" width="185" height="185">
<path d="M185 0H0V185H185V0Z" fill="white"/>
</mask>
<g mask="url(#mask1_127_71)">
<path fill-rule="evenodd" clip-rule="evenodd" d="M38.988 44.0778C46.6964 27.598 52.2352 7.4337 69.4531 2.5052C88.8379 -3.04346 112.499 3.1232 129.61 18.1383C146.416 32.8855 153.974 56.0366 154.916 77.4983C155.736 96.1969 146.494 111.921 134.244 123.773C123.932 133.752 108.892 134.26 94.2791 136.172C78.0473 138.295 60.3416 146.652 46.1787 135.295C31.9417 123.878 32.1467 102.858 30.7574 85.2339C29.5683 70.1525 33.0144 56.8487 38.988 44.0778Z" fill="#FFC93C"/>
<path d="M150.499 67.0658C150.499 87.9496 139.413 106.248 122.785 116.39L127.204 123.635C146.253 112.016 158.985 91.0299 158.985 67.0658H150.499ZM92.768 9.33475C124.652 9.33475 150.499 35.1818 150.499 67.0658H158.985C158.985 30.495 129.339 0.848511 92.768 0.848511V9.33475ZM35.0368 67.0658C35.0368 35.1818 60.884 9.33475 92.768 9.33475V0.848511C56.1971 0.848511 26.5505 30.495 26.5505 67.0658H35.0368ZM62.7511 116.39C46.1229 106.248 35.0368 87.9496 35.0368 67.0658H26.5505C26.5505 91.0299 39.2833 112.016 58.3322 123.635L62.7511 116.39ZM73.1105 132.568L65.4447 119.153L58.0766 123.363L65.7424 136.778L73.1105 132.568ZM76.3531 144.778C76.3531 140.495 75.2352 136.286 73.1105 132.568L65.7424 136.778C67.1344 139.214 67.8668 141.972 67.8668 144.778H76.3531ZM76.3531 157.769V144.778H67.8668V157.769H76.3531ZM85.2661 172.191C79.8037 169.459 76.3531 163.876 76.3531 157.769H67.8668C67.8668 167.09 73.1334 175.612 81.4709 179.781L85.2661 172.191ZM85.5572 172.335L85.2661 172.191L81.4709 179.781L81.7618 179.927L85.5572 172.335ZM99.9787 172.335C95.4395 174.606 90.0965 174.606 85.5572 172.335L81.7618 179.927C88.6902 183.391 96.8455 183.391 103.774 179.927L99.9787 172.335ZM100.27 172.191L99.9787 172.335L103.774 179.927L104.065 179.781L100.27 172.191ZM109.183 157.769C109.183 163.876 105.732 169.459 100.27 172.191L104.065 179.781C112.402 175.612 117.669 167.09 117.669 157.769H109.183ZM109.183 144.778V157.769H117.669V144.778H109.183ZM112.425 132.568C110.301 136.286 109.183 140.495 109.183 144.778H117.669C117.669 141.972 118.401 139.214 119.794 136.778L112.425 132.568ZM120.091 119.153L112.425 132.568L119.794 136.778L127.459 123.363L120.091 119.153ZM58.3322 123.635C58.4352 123.698 58.5029 123.739 58.5586 123.774C58.6139 123.809 58.6289 123.819 58.6238 123.815C58.6168 123.811 58.5691 123.778 58.5 123.723C58.4266 123.664 58.3356 123.584 58.2382 123.484L64.324 117.569C63.7103 116.938 62.9484 116.511 62.7511 116.39L58.3322 123.635ZM65.4447 119.153C65.3318 118.955 64.9353 118.198 64.324 117.569L58.2382 123.484C58.1453 123.388 58.07 123.298 58.0121 123.222C57.9574 123.15 57.9248 123.099 57.9179 123.089C57.9123 123.08 57.9199 123.091 57.9505 123.144C57.9815 123.197 58.0187 123.262 58.0766 123.363L65.4447 119.153ZM122.785 116.39C122.587 116.511 121.826 116.938 121.212 117.569L127.298 123.484C127.2 123.584 127.109 123.664 127.036 123.723C126.967 123.778 126.919 123.811 126.912 123.815C126.907 123.819 126.922 123.809 126.977 123.774C127.033 123.739 127.101 123.698 127.204 123.635L122.785 116.39ZM127.459 123.363C127.517 123.262 127.554 123.197 127.585 123.144C127.616 123.091 127.624 123.08 127.618 123.089C127.611 123.099 127.578 123.15 127.524 123.222C127.466 123.298 127.39 123.388 127.298 123.484L121.212 117.569C120.601 118.198 120.204 118.955 120.091 119.153L127.459 123.363Z" fill="#254626"/>
<path fill-rule="evenodd" clip-rule="evenodd" d="M126.789 119.293C128.136 121.211 127.673 123.858 125.755 125.204L125.463 125.409C120.766 128.707 118.077 130.594 115.392 132.015C101.239 139.504 84.297 139.504 70.1442 132.015C67.4585 130.594 64.7702 128.707 60.0727 125.409C59.9763 125.341 59.8792 125.273 59.7811 125.204L64.6571 118.259C69.7265 121.817 71.957 123.374 74.1132 124.514C85.7831 130.69 99.7527 130.69 111.423 124.514C113.579 123.374 115.809 121.817 120.879 118.259C122.797 116.912 125.443 117.375 126.789 119.293Z" fill="#254626"/>
</g>
</g>
</g>
<defs>
<clipPath id="clip0_127_71">
<rect width="185" height="185" fill="white"/>
</clipPath>
</defs>
</svg>
