<svg width="186" height="55" viewBox="0 0 186 55" fill="none" xmlns="http://www.w3.org/2000/svg">
<path fill-rule="evenodd" clip-rule="evenodd" d="M90.9696 34.0053C90.3729 34.0053 89.9754 33.8993 89.7765 33.6873C89.3787 33.2637 88.9563 32.8929 88.5087 32.575C87.1665 31.4097 85.9983 30.8273 85.0041 30.8273C82.8168 30.8273 80.7786 32.0718 78.8895 34.5613C77.0004 36.9978 76.056 40.0965 76.056 43.8573C76.056 46.2406 76.404 47.8562 77.1 48.7038C77.8455 49.4982 79.0386 49.8954 80.6793 49.8954C84.159 49.8954 87.5892 44.5986 90.9696 34.0053ZM111.326 47.6709C110.481 48.995 109.015 50.3722 106.927 51.8022C104.889 53.1794 102.801 53.8682 100.663 53.8682C98.5755 53.8682 96.7608 52.8882 95.22 50.9282C93.6789 48.9157 92.61 46.5586 92.0136 43.8573C90.6216 47.0882 88.9314 49.7102 86.943 51.723C85.0041 53.6826 82.7919 54.6626 80.3064 54.6626C77.8704 54.6626 75.8073 53.8417 74.1171 52.1997C73.8228 51.9042 73.5537 51.5687 73.3104 51.1927C72.7509 51.1493 72.1758 51.1848 71.6472 51.2477C68.778 52.2456 63.7557 53.8682 62.1924 53.8682C60.5517 53.8682 59.2095 53.1266 58.1655 51.6434C57.1218 50.1602 56.5002 48.5182 56.3013 46.7174C55.7547 41.9505 54.8847 39.5669 53.6916 39.5669C53.0454 39.5669 52.2996 40.017 51.4545 40.9174L49.5159 42.9833C49.0188 43.4598 48.447 44.069 47.8008 44.8106C45.0168 47.9886 42.1833 50.2662 39.3 51.6434C37.4868 52.5095 35.658 52.9893 35.1051 52.9923C35.0217 53.0182 34.9125 53.0315 34.7733 53.0315C34.7469 53.0315 34.7181 53.0318 34.6869 53.0321H34.6866C34.0062 53.0373 32.1495 53.0513 29.9727 51.036C29.595 50.6865 29.2407 50.2413 28.8018 49.6892L28.8015 49.6889C28.6998 49.561 28.5936 49.4274 28.4814 49.288C26.3934 46.6928 24.7563 45.0225 22.3704 43.0626C20.0337 41.1029 16.0569 38.2957 10.4394 34.6409C8.9481 33.6345 8.2023 32.6281 8.2023 31.6217C8.2023 30.0325 8.9481 29.2381 10.4394 29.2381H17.8962C22.0224 29.2381 25.0299 28.6025 26.919 27.3313C28.8576 26.0601 29.8269 23.9677 29.8269 21.0545C29.8269 18.0885 29.1063 15.9961 27.6645 14.778C26.2725 13.5068 24.135 12.8712 21.2517 12.8712C18.3684 12.8712 15.858 13.5068 13.7205 14.778C11.5332 16.1021 9.7932 17.8236 8.5008 19.9424C5.8164 24.2857 4.4742 28.9733 4.4742 34.0053C4.4742 40.5733 5.0208 46.2673 6.1146 51.0873C6.2139 51.405 6.2637 51.8022 6.2637 52.279C6.2637 53.8682 5.5179 54.6626 4.0266 54.6626C3.47982 54.6626 3.00756 54.3978 2.60985 53.8682C2.21217 53.2854 1.93875 52.7558 1.78962 52.279C0.59655 47.1942 0 41.1029 0 34.0053C0 29.8737 0.77052 25.8745 2.31159 22.0081C3.85266 18.1413 6.2637 14.8573 9.5445 12.156C12.8256 9.45471 16.554 8.10403 20.7297 8.10403C24.9552 8.10403 28.2612 9.16339 30.6474 11.2821C33.0831 13.3477 34.3011 16.42 34.3011 20.4985C34.3011 29.5029 28.8327 34.0053 17.8962 34.0053C24.0108 38.0837 28.7334 42.1622 32.064 46.2406C32.4192 46.5901 32.9898 46.9873 33.6057 47.3891C33.6021 47.3837 33.6 47.3788 33.6 47.3742L33.609 47.3912C33.6519 47.4192 33.6948 47.4471 33.738 47.4751C34.1229 47.6594 35.2437 47.9661 36.2082 47.8197C36.5553 47.7101 36.8745 47.5847 37.1376 47.4325C37.9329 47.1146 38.9769 46.479 40.2693 45.5257C41.6115 44.5722 42.5064 43.8573 42.9537 43.3805C43.4013 42.9038 44.1717 42.0298 45.2655 40.7585C46.4088 39.4873 47.3037 38.5341 47.9499 37.8985C48.5961 37.2097 49.4661 36.5213 50.5596 35.8325C51.7032 35.1441 52.7469 34.7997 53.6916 34.7997C55.6302 34.7997 57.1218 35.5413 58.1655 37.0245C59.2095 38.5074 59.8311 40.1494 60.0297 41.9505C60.5766 46.7174 61.4466 49.101 62.6397 49.101C63.5841 49.101 64.8021 48.8362 66.2934 48.3065C66.9297 48.0806 68.0895 47.6442 69.2217 47.2184L69.2229 47.2178L69.225 47.2169H69.2256L69.2292 47.2154L69.2301 47.2151L69.2307 47.2148H69.2313L69.234 47.2136H69.2343C69.8493 46.9822 70.4559 46.7541 70.9653 46.5646C71.4009 46.1893 71.5962 45.7092 71.6667 45.3924C71.6103 44.6867 71.5818 43.9366 71.5818 43.1421C71.5818 38.7457 72.9243 34.7997 75.6087 31.3037C78.2931 27.8081 81.4248 26.0601 85.0041 26.0601C87.0423 26.0601 89.4285 27.2517 92.1627 29.6353C93.0573 18.83 94.872 9.74603 97.6059 2.38353C98.2026 0.794521 98.973 0 99.9177 0C101.409 0 102.155 0.794521 102.155 2.38353C102.155 2.75433 102.055 3.20453 101.856 3.73421C100.216 8.07755 98.8488 13.5332 97.7553 20.1013C96.7113 26.6693 96.1893 33.6873 96.1893 41.1558C96.1893 42.8509 96.6615 44.5986 97.6059 46.3997C98.5506 48.2006 99.5697 49.101 100.663 49.101C102.204 49.101 103.646 48.5978 104.988 47.5914C106.331 46.585 107.3 45.5522 107.897 44.4929C108.493 43.4334 109.214 42.1357 110.059 40.5997C110.904 39.0637 111.476 38.0309 111.774 37.501C112.122 36.9713 112.544 36.3357 113.042 35.5941C113.539 34.7997 113.986 34.2965 114.384 34.0846C115.428 33.5021 116.571 33.2106 117.814 33.2106C119.852 33.2106 121.393 34.0846 122.437 35.8325C123.481 37.5805 124.078 39.4873 124.227 41.553C124.426 43.6189 124.699 45.5257 125.047 47.2737C125.395 49.0214 125.967 49.8954 126.762 49.8954C127.557 49.8954 128.303 49.2334 128.999 47.9093C129.745 46.585 130.391 45.1285 130.938 43.5394C131.485 41.9505 132.355 40.4937 133.548 39.1697C134.79 37.8453 136.257 37.1833 137.947 37.1833C139.24 37.1833 140.184 37.5277 140.781 38.2161C141.377 38.8517 141.8 39.3549 142.048 39.7257C142.347 40.0965 142.595 40.6526 142.794 41.3941C143.042 42.1357 143.216 42.6918 143.316 43.0626C143.415 43.3805 143.564 43.963 143.763 44.8106C144.36 47.7238 144.907 49.1538 145.404 49.101C146.348 49.101 147.566 48.8362 149.058 48.3065C149.631 48.1028 150.105 47.9382 150.48 47.8131C150.709 47.6794 150.965 47.5528 151.246 47.4325C152.042 47.1146 153.086 46.479 154.378 45.5257C155.72 44.5722 156.615 43.8573 157.063 43.3805C157.51 42.9038 158.281 42.0298 159.374 40.7585C160.517 39.4873 161.412 38.5341 162.059 37.8985C162.705 37.2097 163.575 36.5213 164.669 35.8325C165.812 35.1441 166.856 34.7997 167.8 34.7997C169.739 34.7997 171.23 35.5413 172.274 37.0245C173.318 38.5074 173.94 40.1494 174.139 41.9505C174.686 46.7174 175.556 49.101 176.748 49.101C177.693 49.101 178.911 48.8362 180.402 48.3065C181.894 47.7769 182.714 47.5118 182.863 47.5118C184.354 47.5118 185.1 48.3065 185.1 49.8954C185.1 51.0609 184.354 51.9082 182.863 52.4378C180.179 53.3914 177.991 53.8682 176.301 53.8682C174.661 53.8682 173.318 53.1266 172.274 51.6434C171.23 50.1602 170.609 48.5182 170.41 46.7174C169.863 41.9505 168.993 39.5669 167.8 39.5669C167.154 39.5669 166.409 40.017 165.563 40.9174L163.624 42.9833C163.127 43.4598 162.556 44.069 161.909 44.8106C159.126 47.9886 156.292 50.2662 153.409 51.6434C153.014 51.8302 152.654 51.9759 152.327 52.0804C152.087 52.2125 151.818 52.3315 151.518 52.4378C148.834 53.3914 146.746 53.8682 145.255 53.8682C143.763 53.8682 142.595 53.2854 141.75 52.1202C140.905 50.9549 140.135 48.9686 139.439 46.1613C138.792 43.3541 138.295 41.9505 137.947 41.9505C136.654 41.9505 135.287 44.069 133.846 48.3065C133.299 49.8954 132.404 51.3522 131.162 52.6762C129.919 54.0006 128.353 54.6626 126.464 54.6626C124.624 54.6626 123.183 53.7886 122.139 52.0406C121.095 50.2926 120.473 48.3858 120.275 46.3202C120.125 44.2545 119.877 42.3477 119.529 40.5997C119.181 38.8517 118.609 37.9777 117.814 37.9777C117.267 37.9777 116.869 38.1366 116.621 38.4545C116.372 38.7722 116.149 39.0901 115.95 39.4078C115.801 39.6729 115.627 39.9641 115.428 40.2818C115.279 40.5466 115.08 40.9174 114.831 41.3941C114.632 41.8709 114.384 42.3741 114.086 42.9038C113.091 44.7577 112.172 46.3466 111.326 47.6709ZM56.9724 16.4465C56.1273 15.652 55.3071 15.2548 54.5118 15.2548C53.0205 15.2548 52.2747 16.0492 52.2747 17.6381C52.2747 18.5388 52.5234 19.3861 53.0205 20.1805C53.5674 20.9221 54.2385 21.2929 55.0338 21.2929C55.8291 21.2929 56.55 21.0812 57.1962 20.6573C57.8922 20.2337 58.2402 19.6245 58.2402 18.83C58.2402 17.9825 57.8175 17.188 56.9724 16.4465ZM171.081 16.4465C170.236 15.652 169.416 15.2548 168.621 15.2548C167.129 15.2548 166.384 16.0492 166.384 17.6381C166.384 18.5388 166.632 19.3861 167.129 20.1805C167.676 20.9221 168.347 21.2929 169.142 21.2929C169.938 21.2929 170.659 21.0812 171.305 20.6573C172.001 20.2337 172.349 19.6245 172.349 18.83C172.349 17.9825 171.926 17.188 171.081 16.4465Z" fill="#FFC93C"/>
</svg>
