<svg width="183" height="183" viewBox="0 0 183 183" fill="none" xmlns="http://www.w3.org/2000/svg">
<g clip-path="url(#clip0_129_147)">
<mask id="mask0_129_147" style="mask-type:luminance" maskUnits="userSpaceOnUse" x="0" y="0" width="183" height="183">
<path d="M183 0H0V183H183V0Z" fill="white"/>
</mask>
<g mask="url(#mask0_129_147)">
<path fill-rule="evenodd" clip-rule="evenodd" d="M106.337 56.4644C125.613 57.9185 146.777 53.6109 161.498 63.5057C176.941 73.8861 179.817 90.9568 181.353 106.888C183.059 124.582 186.907 145.168 170.546 157.387C154.315 169.508 128.719 162.902 106.337 162.912C83.9317 162.922 59.3804 168.617 42.0547 157.444C23.796 145.67 19.9225 125.454 19.4574 106.888C18.9811 87.8704 20.0103 65.5954 39.4709 54.3006C58.13 43.4709 83.2525 54.723 106.337 56.4644Z" fill="#FFC93C"/>
<path fill-rule="evenodd" clip-rule="evenodd" d="M6.82006 47.2793C8.16843 44.9981 11.7267 39.9303 18.232 39.9303C24.7376 39.9303 28.296 44.9982 29.6443 47.2795C31.3726 50.2035 32.6121 53.8262 33.5308 57.5013C35.4035 64.9916 36.4642 74.8541 36.4642 85.4085C36.4642 95.9631 35.4035 105.826 33.5308 113.316C32.6119 116.991 31.3726 120.613 29.6443 123.538C28.296 125.819 24.7376 130.887 18.232 130.887C11.7265 130.887 8.16826 125.819 6.81996 123.538C5.09163 120.614 3.85213 116.991 2.93327 113.316C1.06077 105.826 0 95.9632 0 85.4085C0 74.8541 1.06077 64.9914 2.93327 57.5013C3.85207 53.8262 5.09166 50.2033 6.82006 47.2793ZM16.4158 49.8068C15.754 50.3529 15.1713 51.1326 14.6969 51.9351C13.6102 53.7737 12.6317 56.4344 11.8101 59.7205C10.1665 66.2949 9.15 75.3769 9.15 85.4085C9.15 95.4404 10.1666 104.522 11.8101 111.096C12.6316 114.383 13.6101 117.043 14.6969 118.882C15.1713 119.685 15.754 120.464 16.4158 121.011C17.0242 121.513 17.5895 121.737 18.232 121.737C18.8747 121.737 19.44 121.513 20.0484 121.011C20.7102 120.464 21.293 119.685 21.7673 118.882C22.854 117.043 23.8325 114.383 24.654 111.097C26.2976 104.523 27.3142 95.4404 27.3142 85.4085C27.3142 75.3767 26.2978 66.2947 24.654 59.7205C23.8325 56.4344 22.854 53.7737 21.7673 51.9351C21.293 51.1326 20.7102 50.3529 20.0484 49.8068C19.44 49.3048 18.8747 49.0803 18.232 49.0803C17.5895 49.0803 17.0242 49.3048 16.4158 49.8068Z" fill="#254626"/>
<path fill-rule="evenodd" clip-rule="evenodd" d="M19.488 40.1396L19.5006 40.1431L19.5579 40.1592C19.6112 40.1742 19.6949 40.1975 19.8082 40.2284C20.0345 40.2905 20.379 40.3835 20.8362 40.5031C21.7505 40.7425 23.1149 41.088 24.8855 41.5045C28.427 42.3379 33.5891 43.4544 40.0184 44.5726C52.8869 46.8105 70.7809 49.046 90.8889 49.046C110.997 49.046 128.891 46.8105 141.759 44.5726C148.189 43.4544 153.351 42.3379 156.892 41.5045C158.663 41.088 160.027 40.7425 160.942 40.5031C161.399 40.3835 161.743 40.2905 161.97 40.2284C162.083 40.1975 162.166 40.1742 162.22 40.1592L162.277 40.1431L162.289 40.1399C162.288 40.1399 162.289 40.1398 162.289 40.1399C164.718 39.4465 167.25 40.853 167.944 43.282C168.639 45.7115 167.232 48.2436 164.802 48.9379L163.545 44.5388C164.802 48.9379 164.803 48.9375 164.802 48.9379L164.798 48.939L164.791 48.9412L164.767 48.9478L164.686 48.9706C164.617 48.9901 164.517 49.0178 164.387 49.0532C164.128 49.1242 163.75 49.2263 163.258 49.3551C162.274 49.6124 160.836 49.9764 158.988 50.4113C155.292 51.2809 149.953 52.4348 143.327 53.5872C130.084 55.8904 111.65 58.196 90.8889 58.196C70.1276 58.196 51.6935 55.8904 38.4507 53.5872C31.8246 52.4348 26.4855 51.2809 22.7897 50.4113C20.9416 49.9764 19.5035 49.6124 18.5198 49.3551C18.0279 49.2263 17.6496 49.1242 17.3904 49.0532C17.2608 49.0178 17.1609 48.9901 17.0916 48.9706L17.0105 48.9478L16.9871 48.9412L16.9772 48.9384C16.9762 48.938 16.9754 48.9379 18.2322 44.5388L16.9772 48.9384C14.5478 48.2443 13.1392 45.7115 13.8333 43.282C14.5273 40.853 17.059 39.4464 19.488 40.1396Z" fill="#254626"/>
<path fill-rule="evenodd" clip-rule="evenodd" d="M77.2904 117.488C77.4496 120.01 75.5343 122.183 73.0126 122.342C57.3743 123.329 43.95 125.423 34.4451 127.269C29.695 128.192 25.9304 129.051 23.3652 129.676C22.0827 129.989 21.1005 130.243 20.4454 130.416C20.1179 130.503 19.8722 130.57 19.7116 130.615L19.5351 130.664L19.4955 130.675L19.4888 130.677C19.4884 130.677 19.4891 130.677 19.4888 130.677C17.0596 131.37 14.527 129.964 13.833 127.535C13.1388 125.105 14.5456 122.573 16.9751 121.879L18.232 126.278C16.9751 121.879 16.9743 121.879 16.9751 121.879L17.0017 121.871L17.0613 121.854L17.2787 121.794C17.4667 121.742 17.7407 121.668 18.0971 121.573C18.8098 121.384 19.8528 121.114 21.1987 120.786C23.8902 120.13 27.796 119.24 32.7007 118.287C42.5051 116.383 56.3272 114.227 72.4366 113.21C74.9581 113.051 77.1314 114.967 77.2904 117.488ZM104.487 117.488C104.646 114.967 106.819 113.051 109.341 113.21C125.45 114.227 139.272 116.383 149.076 118.287C153.981 119.24 157.887 120.13 160.578 120.786C161.924 121.114 162.967 121.384 163.68 121.573C164.036 121.668 164.31 121.742 164.498 121.794L164.716 121.854L164.775 121.871L164.798 121.878C164.799 121.878 164.802 121.879 163.545 126.278L164.802 121.879C167.232 122.573 168.639 125.105 167.944 127.535C167.25 129.964 164.718 131.371 162.289 130.677M162.289 130.677L162.281 130.675L162.242 130.664L162.065 130.615C161.905 130.57 161.659 130.503 161.332 130.416C160.677 130.243 159.694 129.989 158.412 129.676C155.847 129.051 152.082 128.192 147.332 127.269C137.827 125.423 124.403 123.329 108.765 122.342C106.243 122.183 104.328 120.01 104.487 117.488" fill="#254626"/>
<path fill-rule="evenodd" clip-rule="evenodd" d="M77.2657 49.0464C79.7924 49.0464 81.8407 51.0946 81.8407 53.6214V85.4087C81.8407 87.9354 79.7924 89.9837 77.2657 89.9837C74.7391 89.9837 72.6907 87.9354 72.6907 85.4087V53.6214C72.6907 51.0946 74.7391 49.0464 77.2657 49.0464ZM104.512 49.0464C107.039 49.0464 109.087 51.0946 109.087 53.6214V85.4087C109.087 87.9354 107.039 89.9837 104.512 89.9837C101.985 89.9837 99.9369 87.9354 99.9369 85.4087V53.6214C99.9369 51.0946 101.985 49.0464 104.512 49.0464Z" fill="#254626"/>
<path fill-rule="evenodd" clip-rule="evenodd" d="M90.8889 85.4082C80.8571 85.4082 72.7247 93.5406 72.7247 103.572C72.7247 113.604 80.8571 121.737 90.8889 121.737C100.921 121.737 109.053 113.604 109.053 103.572C109.053 93.5406 100.921 85.4082 90.8889 85.4082ZM63.5747 103.572C63.5747 88.4871 75.8038 76.2582 90.8889 76.2582C105.974 76.2582 118.203 88.4871 118.203 103.572C118.203 118.658 105.974 130.887 90.8889 130.887C75.8038 130.887 63.5747 118.658 63.5747 103.572Z" fill="#254626"/>
<path fill-rule="evenodd" clip-rule="evenodd" d="M76.297 114.337C77.8755 116.311 77.5555 119.19 75.5825 120.768L59.4441 133.679L65.0892 135.561C66.0544 135.882 66.8848 136.517 67.4492 137.363L72.7245 145.276L87.0821 123.74C87.9306 122.467 89.359 121.703 90.8887 121.703C92.4183 121.703 93.8469 122.467 94.6952 123.74L109.053 145.276L114.328 137.363C114.893 136.517 115.723 135.882 116.688 135.561L122.333 133.679L106.195 120.768C104.222 119.19 103.902 116.311 105.48 114.337C107.059 112.365 109.938 112.045 111.911 113.623L134.616 131.787C135.925 132.834 136.556 134.513 136.262 136.163C135.968 137.813 134.795 139.17 133.205 139.7L121.071 143.745L112.859 156.062C112.011 157.335 110.583 158.099 109.053 158.099C107.523 158.099 106.095 157.335 105.246 156.062L90.8887 134.525L76.5312 156.062C75.6827 157.335 74.2543 158.099 72.7245 158.099C71.1949 158.099 69.7664 157.335 68.9179 156.062L60.7066 143.745L48.5725 139.7C46.9826 139.17 45.8096 137.813 45.5154 136.163C45.2211 134.513 45.8525 132.834 47.1614 131.787L69.8667 113.623C71.8396 112.045 74.7187 112.365 76.297 114.337Z" fill="#254626"/>
<path fill-rule="evenodd" clip-rule="evenodd" d="M163.556 130.887C170.019 130.852 173.556 125.811 174.901 123.538C176.629 120.613 177.868 116.991 178.788 113.316C180.66 105.826 181.721 95.9632 181.721 85.4084C181.721 74.854 180.66 64.9915 178.788 57.5013C177.868 53.8262 176.629 50.2034 174.901 47.2795C173.556 45.0061 170.019 39.9655 163.556 39.9304V49.0811C164.171 49.0964 164.718 49.3225 165.305 49.8067C165.966 50.3529 166.549 51.1325 167.023 51.9352C168.11 53.7736 169.089 56.4343 169.91 59.7206C171.553 66.2947 172.571 75.3768 172.571 85.4084C172.571 95.4404 171.553 104.523 169.91 111.097C169.089 114.383 168.11 117.043 167.023 118.882C166.549 119.685 165.966 120.464 165.305 121.011C164.718 121.495 164.171 121.721 163.556 121.736V130.887Z" fill="#254626"/>
</g>
</g>
<defs>
<clipPath id="clip0_129_147">
<rect width="183" height="183" fill="white"/>
</clipPath>
</defs>
</svg>
